<svg xmlns="http://www.w3.org/2000/svg" viewBox="0 0 48 48"><path d="M 9 0 C 6.238 0 3.9960938 2.241 3.9960938 5 C 3.9960938 8.545 6.27925 10.089453 8.40625 11.939453 C 7.66725 11.827453 6.5278437 12.353016 6.2148438 12.666016 C 5.8248438 13.055016 5.9814063 13.848594 6.5664062 14.433594 C 7.1514062 15.018594 7.9469375 15.176109 8.3359375 14.787109 C 8.6609375 14.461109 9.2128281 13.246625 9.0488281 12.515625 C 9.9408281 13.348625 10.758641 14.284859 11.306641 15.505859 C 10.855641 15.196859 10.297 15 10 15 C 9.448 15 8.9980469 15.672 8.9980469 16.5 C 8.9980469 17.328 9.448 18 10 18 C 10.425 18 11.388687 17.600156 11.804688 17.035156 C 11.929688 17.628156 12 18.279 12 19 L 15.117188 19 L 18.412109 33.007812 L 18.412109 33 C 18.728109 34.309 19 35.725 19 37 C 19 39.009 13.653 40.34 10 41 L 10 47 C 8.899 47 6 47.22 6 47.5 C 6 47.779 8.899 48 10 48 L 23.003906 48 L 23.996094 48 L 29.998047 48 L 31 48 L 35.998047 48 L 36 48 C 37.652 48 42 47.779 42 47.5 C 42 47.22 37.652 47 36 47 L 35.998047 47.001953 L 35.998047 32 C 35.998047 27.336 38.807187 22.251 42.867188 19 L 44 19 C 44.551 19 45 18.552 45 18 C 45 17.449 44.551 17 44 17 L 22.007812 17 C 21.455813 17 21.007812 17.449 21.007812 18 C 21.007812 18.552 21.455813 19 22.007812 19 L 23.126953 19 C 27.187953 22.249 29.998047 27.335 29.998047 32 L 29.998047 47.001953 L 23.761719 47.001953 L 22.771484 42.802734 C 22.770484 42.792734 22.768578 42.782484 22.767578 42.771484 L 16.414062 15.775391 C 16.315062 15.360391 15.970313 15.068672 15.570312 15.013672 C 14.832313 12.005672 13.1325 9.987 10.4375 8 L 9.5019531 8 C 8.1139531 8 7 6.8642812 7 5.4882812 C 7 4.1202812 8.115375 3.0117187 9.484375 3.0117188 C 9.759375 3.0117188 9.984375 3.2367188 9.984375 3.5117188 C 9.984375 3.7877187 9.759375 4.0117188 9.484375 4.0117188 C 8.663375 4.0117188 8 4.6762812 8 5.4882812 C 8 6.3192812 8.6759531 7 9.5019531 7 L 9.9960938 7 C 11.654094 7 13 5.655 13 4 C 13 1.793 11.209 0 9 0 z M 35.001953 0 L 33 0.001953125 L 33 8.2890625 C 32.545 8.1040625 32.037953 8 31.501953 8 C 29.569953 8 28 9.344 28 11 C 28 12.656 29.569953 14 31.501953 14 C 33.433953 14 35.001953 12.656 35.001953 11 L 35.001953 4 C 36.294953 4.3 37.001953 4.76 37.001953 6 C 37.001953 7.063 36.630953 8.071 36.001953 9 L 37.001953 10 C 38.326953 8.174 39.001953 7.1776719 39.001953 5.5136719 C 39.001953 2.6376719 35.713953 1.412 35.001953 0 z M 30.550781 9.0175781 C 30.659344 9.0419375 30.755281 9.0912187 30.832031 9.1679688 C 31.139031 9.4749688 31.014688 10.095688 30.554688 10.554688 C 30.095688 11.014687 29.474969 11.139031 29.167969 10.832031 C 28.860969 10.525031 28.985312 9.9043125 29.445312 9.4453125 C 29.789562 9.1003125 30.225094 8.9445 30.550781 9.0175781 z M 24.619141 19 L 29.150391 19 C 30.840391 22.357 31.998047 26.435 31.998047 31 L 31.998047 47 L 30.998047 47 L 30.998047 32 C 30.998047 27.609 28.714297 22.959172 25.279297 19.576172 L 24.619141 19 z M 20.998047 43.611328 C 21.230047 43.912328 21.624531 44.068562 22.019531 43.976562 L 22.732422 47.001953 L 20.998047 47.001953 L 20.998047 43.611328 z"/></svg>