<svg xmlns="http://www.w3.org/2000/svg" viewBox="0 0 24 24"><path d="M 11.083984 1.5078125 C 11.007872 1.4948387 10.929316 1.4981544 10.853516 1.5214844 L 4.8535156 3.3691406 C 4.6437156 3.4336906 4.5 3.6262031 4.5 3.8457031 L 4.5 6.7675781 C 4.20583 6.5974081 3.86429 6.5 3.5 6.5 C 2.39543 6.5 1.5 7.39543 1.5 8.5 C 1.5 9.60457 2.39543 10.5 3.5 10.5 C 4.60457 10.5 5.5 9.60457 5.5 8.5 L 5.5 4.2148438 L 10.5 2.6777344 L 10.5 5.7675781 C 10.2058 5.5974081 9.86429 5.5 9.5 5.5 C 8.39543 5.5 7.5 6.39543 7.5 7.5 C 7.5 8.60457 8.39543 9.5 9.5 9.5 C 10.6046 9.5 11.5 8.60457 11.5 7.5 L 11.5 2 C 11.5 1.84133 11.424475 1.6919262 11.296875 1.5976562 C 11.233025 1.5505213 11.160097 1.5207863 11.083984 1.5078125 z M 17.28125 6.3632812 C 16.001625 6.3632812 14.722394 6.851815 13.746094 7.828125 C 12.850894 8.723355 12.365416 9.8735219 12.291016 11.044922 C 12.227716 11.073922 12.169594 11.117728 12.121094 11.173828 L 6.5566406 17.609375 C 5.5281806 18.798975 5.5931381 20.581459 6.7050781 21.693359 L 6.9199219 21.910156 C 8.0473919 23.037556 9.860715 23.085031 11.046875 22.019531 L 17.333984 16.371094 L 17.34375 16.363281 C 18.60275 16.347881 19.855706 15.861091 20.816406 14.900391 C 22.769006 12.947791 22.769006 9.780745 20.816406 7.828125 C 19.840106 6.851815 18.560875 6.3632812 17.28125 6.3632812 z M 9.5 6.5 C 10.0523 6.5 10.5 6.94772 10.5 7.5 C 10.5 8.05229 10.0523 8.5 9.5 8.5 C 8.94772 8.5 8.5 8.05229 8.5 7.5 C 8.5 6.94772 8.94772 6.5 9.5 6.5 z M 17.28125 7.3632812 C 18.30495 7.3632812 19.328325 7.7541062 20.109375 8.5351562 C 21.671475 10.097216 21.671475 12.631259 20.109375 14.193359 C 18.547275 15.755459 16.015225 15.755459 14.453125 14.193359 C 12.891025 12.631259 12.891025 10.097216 14.453125 8.5351562 C 15.234175 7.7541062 16.25755 7.3632812 17.28125 7.3632812 z M 3.5 7.5 C 4.05228 7.5 4.5 7.94772 4.5 8.5 C 4.5 9.05229 4.05228 9.5 3.5 9.5 C 2.94772 9.5 2.5 9.05229 2.5 8.5 C 2.5 7.94772 2.94772 7.5 3.5 7.5 z M 12.388672 12.394531 C 12.581072 13.312831 13.033194 14.187491 13.746094 14.900391 C 14.399894 15.554191 15.190591 15.989078 16.025391 16.205078 L 10.378906 21.275391 C 9.5880763 21.985691 8.3785931 21.954825 7.6269531 21.203125 L 7.4121094 20.986328 C 6.6708194 20.245028 6.62686 19.056672 7.3125 18.263672 L 12.388672 12.394531 z M 12.5 15.5 C 12.372025 15.5 12.244134 15.548834 12.146484 15.646484 L 10.646484 17.146484 C 10.451284 17.341684 10.451284 17.658216 10.646484 17.853516 C 10.841784 18.048716 11.158216 18.048716 11.353516 17.853516 L 12.853516 16.353516 C 13.048716 16.158216 13.048716 15.841684 12.853516 15.646484 C 12.755866 15.548834 12.627975 15.5 12.5 15.5 z"/></svg>