<svg xmlns="http://www.w3.org/2000/svg" viewBox="0 0 64 64"><path d="M 25.001953 4 C 16.169953 4 8.9980469 11.168 8.9980469 20 L 8.9902344 34.335938 C 8.4222344 35.256938 7.6621094 36.891 7.6621094 39 C 7.6621094 42.056 9.4051562 44.240094 10.410156 45.246094 L 10.71875 45.537109 L 11.134766 46.552734 C 14.633766 54.165734 22.945484 59.732828 24.521484 60.548828 L 25.404297 61 L 30.742188 61 L 31.623047 60.544922 C 33.194047 59.733922 41.507812 54.171734 45.007812 46.552734 L 45.423828 45.533203 L 45.71875 45.257812 C 46.215298 44.762238 46.88228 43.985125 47.4375 42.970703 C 51.861339 42.821455 58.001953 41.893193 58.001953 38 C 58.001953 33.353371 52.397372 28.74858 47.003906 25.964844 L 47.003906 20 C 47.003906 11.168 39.833953 4 31.001953 4 L 25.001953 4 z M 18.001953 17 L 27.001953 17 C 28.104953 17 29.001953 17.897 29.001953 19 C 29.001953 20.104 28.103953 21 27.001953 21 L 18.001953 21 C 16.897953 21 16.001953 20.104 16.001953 19 C 16.001953 17.897 16.897953 17 18.001953 17 z M 13.15625 27 L 42.851562 27 C 42.953562 27.894 43.001953 28.787063 43.001953 29.664062 L 43.001953 35.748047 L 43.462891 36.304688 C 43.643891 36.522688 44.482422 37.515047 44.482422 38.998047 C 44.482422 41.075047 42.788703 42.547125 42.595703 42.703125 L 42.078125 43.085938 L 41.873047 43.660156 C 41.029829 46.02537 39.518746 48.232993 37.841797 50.154297 C 35.672264 47.045792 32.076771 45.005859 28.001953 45.005859 C 23.965058 45.005859 20.39764 47.005772 18.222656 50.0625 C 16.577329 48.161804 15.099854 45.98667 14.271484 43.660156 L 14.060547 43.068359 L 13.560547 42.712891 L 13.433594 42.603516 C 12.956594 42.170516 11.662109 40.817 11.662109 39 C 11.662109 37.441 12.443969 36.339797 12.542969 36.216797 L 13.001953 35.650391 L 13.001953 29.667969 C 13.001953 28.788969 13.05125 27.895 13.15625 27 z M 15 30 L 15 33 C 15 36.312 17.688 39 21 39 C 24.312 39 27.001953 36.312 27.001953 33 L 28.998047 33 C 28.998047 36.312 31.688 39 35 39 C 38.312 39 41 36.312 41 33 L 41 30 L 15 30 z M 28.001953 48.005859 C 31.276604 48.005859 34.12767 49.770532 35.703125 52.388672 C 34.673733 53.370913 33.690379 54.191416 32.791016 54.894531 C 31.380304 52.639995 29.844245 51 28.001953 51 C 26.179371 51 24.654184 52.603151 23.255859 54.820312 C 22.354367 54.110645 21.374414 53.281756 20.351562 52.298828 C 21.937575 49.729977 24.763604 48.005859 28.001953 48.005859 z"/></svg>