<svg xmlns="http://www.w3.org/2000/svg" viewBox="0 0 64 64"><path d="M 28 9 C 26.895 9 26 9.895 26 11 L 26 12 L 14 12 C 12.896 12 12 12.896 12 14 C 12 15.104 12.896 16 14 16 L 50 16 C 51.104 16 52 15.104 52 14 C 52 12.896 51.104 12 50 12 L 38 12 L 38 11 C 38 9.895 37.105 9 36 9 L 28 9 z M 15 18 L 15 46 C 15 49.31 17.69 52 21 52 L 43 52 C 46.31 52 49 49.31 49 46 L 49 18 L 15 18 z M 26 27 C 26.51175 27 27.023563 27.195438 27.414062 27.585938 L 32 32.171875 L 36.585938 27.585938 C 37.366938 26.804937 38.633063 26.804938 39.414062 27.585938 C 40.195062 28.366938 40.195062 29.633063 39.414062 30.414062 L 34.828125 35 L 39.414062 39.585938 C 40.195062 40.366937 40.195062 41.633063 39.414062 42.414062 C 39.023062 42.805063 38.512 43 38 43 C 37.488 43 36.976937 42.805062 36.585938 42.414062 L 32 37.828125 L 27.414062 42.414062 C 27.023062 42.805063 26.512 43 26 43 C 25.488 43 24.976938 42.805062 24.585938 42.414062 C 23.804938 41.633062 23.804938 40.366937 24.585938 39.585938 L 29.171875 35 L 24.585938 30.414062 C 23.804937 29.633062 23.804938 28.366937 24.585938 27.585938 C 24.976437 27.195438 25.48825 27 26 27 z"/></svg>