<svg xmlns="http://www.w3.org/2000/svg" viewBox="0 0 32 32"><path d="M 6 3 L 6 29 L 17.771484 29 C 19.240982 30.824972 21.488603 32 24 32 C 28.4 32 32 28.4 32 24 C 32 20.291044 29.438915 17.160607 26 16.265625 L 26 9.5859375 L 19.414062 3 L 6 3 z M 8 5 L 18 5 L 18 11 L 24 11 L 24 16 C 22.603791 16 21.290169 16.364481 20.144531 17 L 11 17 L 11 19 L 17.771484 19 C 17.286859 19.601857 16.887802 20.274959 16.591797 21 L 11 21 L 11 23 L 16.070312 23 C 16.028764 23.32857 16 23.660626 16 24 C 16 25.06037 16.212827 26.071744 16.591797 27 L 8 27 L 8 5 z M 20 6.4140625 L 22.585938 9 L 20 9 L 20 6.4140625 z M 11 13 L 11 15 L 21 15 L 21 13 L 11 13 z M 24 18 C 27.3 18 30 20.7 30 24 C 30 27.3 27.3 30 24 30 C 20.7 30 18 27.3 18 24 C 18 20.7 20.7 18 24 18 z M 20 23 L 20 25 L 28 25 L 28 23 L 20 23 z"/></svg>