<svg xmlns="http://www.w3.org/2000/svg" viewBox="0 0 24 24"><path d="M 18 1.25 C 17.5858 1.25 17.25 1.58579 17.25 2 L 17.25 3.3789062 C 17.0154 3.2959962 16.763 3.25 16.5 3.25 C 15.2574 3.25 14.25 4.25736 14.25 5.5 C 14.25 6.74264 15.2574 7.75 16.5 7.75 C 17.7426 7.75 18.75 6.74264 18.75 5.5 L 18.75 2.75 L 20.5 2.75 C 20.9142 2.75 21.25 2.41421 21.25 2 C 21.25 1.58579 20.9142 1.25 20.5 1.25 L 18 1.25 z M 12 2.25 C 6.06294 2.25 1.25 7.06294 1.25 13 C 1.25 18.9371 6.06294 23.75 12 23.75 C 17.9371 23.75 22.75 18.9371 22.75 13 C 22.75 11.0432 22.225647 9.20694 21.310547 7.625 C 21.103147 7.26645 20.645709 7.1441525 20.287109 7.3515625 C 19.928609 7.5589625 19.806272 8.01646 20.013672 8.375 C 20.800272 9.73479 21.25 11.3139 21.25 13 C 21.25 15.6414 20.142688 18.023484 18.367188 19.708984 C 17.969488 19.074284 17.304825 18.570331 16.578125 18.207031 C 15.367725 17.601831 13.748 17.25 12 17.25 C 10.252 17.25 8.632245 17.601831 7.421875 18.207031 C 6.695105 18.570331 6.0304225 19.074284 5.6328125 19.708984 C 3.8572925 18.023484 2.75 15.6414 2.75 13 C 2.75 7.89137 6.89137 3.75 12 3.75 C 12.4142 3.75 12.75 3.41421 12.75 3 C 12.75 2.58579 12.4142 2.25 12 2.25 z M 12 8.25 C 9.92893 8.25 8.25 9.92893 8.25 12 C 8.25 14.0711 9.92893 15.75 12 15.75 C 14.0711 15.75 15.75 14.0711 15.75 12 C 15.75 9.92893 14.0711 8.25 12 8.25 z M 12 9.75 C 13.2426 9.75 14.25 10.7574 14.25 12 C 14.25 13.2426 13.2426 14.25 12 14.25 C 10.7574 14.25 9.75 13.2426 9.75 12 C 9.75 10.7574 10.7574 9.75 12 9.75 z"/></svg>