<?xml version="1.0"?><svg xmlns="http://www.w3.org/2000/svg" viewBox="0 0 30 30">    <path d="M 14.28125 2.0039062 C 14.18725 2.0019062 14.094 2.0097656 14 2.0097656 L 14 11.140625 C 15.722 11.586625 17 13.138 17 15 C 17 17.209 15.209 19 13 19 C 10.791 19 9 17.209 9 15 C 9 13.138 10.278 11.586625 12 11.140625 L 12 2.1972656 C 7.555 3.0382656 3.8814844 6.5965938 3.1464844 11.183594 C 2.5044844 15.191594 4.031375 18.872953 6.734375 21.251953 C 7.564375 21.981953 8 23.061969 8 24.167969 L 8 28 L 18 28 L 18 26.441406 C 18 25.580406 18.550187 24.816922 19.367188 24.544922 L 22.632812 23.457031 C 23.448813 23.184031 24 22.419594 24 21.558594 L 24 17.744141 L 26.267578 16.962891 A 1 1 0 0 0 27 16 A 1 1 0 0 0 26.773438 15.369141 L 26.746094 15.335938 A 1 1 0 0 0 26.716797 15.302734 L 23.958984 11.998047 C 23.5582 6.4851023 19.861766 2.1444805 14.28125 2.0039062 z"/></svg>