<svg xmlns="http://www.w3.org/2000/svg" viewBox="0 0 24 24"><path d="M 5.75 3 A 1.0001 1.0001 0 0 0 4.8867188 3.4960938 L 3.1367188 6.4960938 A 1.0001 1.0001 0 0 0 3 7 L 3 19 C 3 20.093063 3.9069372 21 5 21 L 19 21 C 20.093063 21 21 20.093063 21 19 L 21 7 A 1.0001 1.0001 0 0 0 20.863281 6.4960938 L 19.113281 3.4960938 A 1.0001 1.0001 0 0 0 18.25 3 L 5.75 3 z M 6.3242188 5 L 17.675781 5 L 18.841797 7 L 5.1582031 7 L 6.3242188 5 z M 12 10 C 12.552 10 13 10.448 13 11 L 13 14 L 14.400391 14 C 14.723391 14 15.014672 14.195141 15.138672 14.494141 C 15.179672 14.593141 15.199219 14.697781 15.199219 14.800781 C 15.199219 15.008781 15.119797 15.212234 14.966797 15.365234 L 12.566406 17.765625 C 12.254406 18.077625 11.747547 18.077625 11.435547 17.765625 L 9.0351562 15.365234 C 8.8061563 15.136234 8.7373281 14.794141 8.8613281 14.494141 C 8.9843281 14.195141 9.2756094 14 9.5996094 14 L 11 14 L 11 11 C 11 10.448 11.448 10 12 10 z"/></svg>