<svg xmlns="http://www.w3.org/2000/svg" viewBox="0 0 32 32"><path d="M29.895,12.52c-0.235-0.704-0.829-1.209-1.549-1.319l-7.309-1.095l-3.29-6.984C17.42,2.43,16.751,2,16,2	s-1.42,0.43-1.747,1.122l-3.242,6.959l-7.357,1.12c-0.72,0.11-1.313,0.615-1.549,1.319c-0.241,0.723-0.063,1.507,0.465,2.046	l5.321,5.446l-1.257,7.676c-0.125,0.767,0.185,1.518,0.811,1.959c0.602,0.427,1.376,0.469,2.02,0.114l6.489-3.624l6.581,3.624	c0.646,0.355,1.418,0.311,2.02-0.114c0.626-0.441,0.937-1.192,0.811-1.959l-1.259-7.686l5.323-5.436	C29.958,14.027,30.136,13.243,29.895,12.52z M22.678,18.603c-0.443,0.452-0.646,1.1-0.543,1.731l1.245,7.608l-6.461-3.558	c-0.575-0.316-1.261-0.316-1.837,0l-6.462,3.559l1.246-7.609c0.104-0.632-0.1-1.279-0.542-1.73l-5.367-5.425l7.356-1.12	c0.636-0.097,1.182-0.508,1.461-1.1L16,4.108l3.227,6.85c0.279,0.592,0.826,1.003,1.461,1.1l7.313,1.108L22.678,18.603z"/></svg>