<svg xmlns="http://www.w3.org/2000/svg" viewBox="0 0 50 50"><path d="M 13 5 A 1.0001 1.0001 0 1 0 13 7 L 37 7 A 1.0001 1.0001 0 1 0 37 5 L 13 5 z M 8 9 A 1.0001 1.0001 0 1 0 8 11 L 42 11 A 1.0001 1.0001 0 1 0 42 9 L 8 9 z M 3 13 A 1.0001 1.0001 0 0 0 2 14 L 2 44 A 1.0001 1.0001 0 0 0 3 45 L 47 45 A 1.0001 1.0001 0 0 0 48 44 L 48 14 A 1.0001 1.0001 0 0 0 47 13 L 3 13 z M 4 15 L 46 15 L 46 43 L 4 43 L 4 15 z M 25 20 C 24.195 20 24 20.469 24 21 L 24 30 C 24 31.116 24 32 22 32 C 19.146 32 18 33.217 18 35 C 18 36.201 18.246 38 22 38 C 25.754 38 26 35.352 26 34 L 26 26.035156 C 26 25.342156 26.056938 25 26.460938 25 C 27.749938 25 27.75 26 31 26 C 31 26 32 26 32 25 L 32 22 C 32 21.25 31.641 21 31 21 C 27.75 21 28 20 25 20 z"/></svg>