<svg xmlns="http://www.w3.org/2000/svg" viewBox="0 0 30 30"><path d="M 15 3 C 8.3845336 3 3 8.3845336 3 15 C 3 21.615466 8.3845336 27 15 27 C 21.615466 27 27 21.615466 27 15 C 27 10.860283 24.897915 7.2001531 21.699219 5.0429688 L 22.845703 3.5722656 L 18 3.3964844 L 19.398438 8 L 20.460938 6.6347656 C 22.927938 8.2475139 24.639833 10.910337 24.945312 14.003906 A 1 1 0 0 0 24.951172 16 C 24.483457 20.733488 20.731802 24.484346 15.998047 24.951172 A 1 1 0 0 0 15 24 A 1 1 0 0 0 14.001953 24.951172 C 9.267557 24.484283 5.515717 20.732443 5.0488281 15.998047 A 1 1 0 0 0 5.0488281 14 C 5.5490109 8.9379267 9.80344 5 15 5 A 1.0001 1.0001 0 1 0 15 3 z M 14.984375 7.9863281 A 1.0001 1.0001 0 0 0 14 9 L 14 14.5 L 10.400391 17.199219 A 1.0003905 1.0003905 0 1 0 11.599609 18.800781 L 15.599609 15.800781 A 1.0001 1.0001 0 0 0 16 15 L 16 9 A 1.0001 1.0001 0 0 0 14.984375 7.9863281 z"/></svg>