<svg xmlns="http://www.w3.org/2000/svg" viewBox="0 0 48 48"><path d="M 11 2 C 9.897 2 9 2.897 9 4 L 9 5 L 9 6.0722656 C 9 7.0442656 8.3077031 7.9049688 7.3457031 8.0429688 C 7.3101504 8.0480952 7.2705383 8.0585406 7.234375 8.0644531 C 7.1239037 8.0816649 7.0162149 8.1045184 6.9082031 8.1289062 C 6.6420305 8.1888959 6.368505 8.2705346 6.0859375 8.3867188 C 6.0504697 8.4015527 6.0174766 8.4199223 5.9824219 8.4355469 C 5.7546111 8.5352695 5.5258945 8.661203 5.296875 8.8085938 C 5.2372774 8.8472419 5.1808803 8.888612 5.1230469 8.9296875 C 5.0380492 8.9896641 4.9513908 9.035752 4.8671875 9.1035156 L 4.8847656 9.125 C 3.7458482 10.043571 3 11.432046 3 13 L 3 36 C 3 38.749516 5.2504839 41 8 41 L 26 41 A 1.0001 1.0001 0 1 0 26 39 L 8 39 C 6.3315161 39 5 37.668484 5 36 L 5 13 C 5 12.011584 5.4753204 11.150606 6.203125 10.605469 C 6.2813598 10.546584 6.3608615 10.491882 6.4433594 10.441406 C 6.5241537 10.392455 6.6076928 10.347936 6.6933594 10.306641 C 6.7652253 10.271632 6.8378327 10.237961 6.9121094 10.208984 C 7.0212512 10.166873 7.1349291 10.134842 7.25 10.105469 C 7.3131512 10.089237 7.3750768 10.068719 7.4394531 10.056641 C 7.6214475 10.022723 7.8075082 10 8 10 L 10 10 L 15 10 A 1.0001 1.0001 0 0 0 16 8.8417969 L 16 4 C 16 2.897 15.103 2 14 2 L 11 2 z M 32 2 C 30.897 2 30 2.897 30 4 L 30 5 L 30 6 C 30 7.105 29.105 8 28 8 L 20 8 A 1.0001 1.0001 0 1 0 20 10 L 31 10 L 36 10 A 1.0001 1.0001 0 0 0 37 8.8417969 L 37 4 C 37 2.897 36.103 2 35 2 L 32 2 z M 40.09375 8.6054688 A 1.0001 1.0001 0 0 0 39.595703 10.458984 C 40.438921 10.990122 41 11.921984 41 13 L 41 29.523438 C 40.060295 29.190739 39.053774 29 38 29 C 33.029 29 29 33.029 29 38 C 29 42.971 33.029 47 38 47 C 42.971 47 47 42.971 47 38 C 47 34.879919 45.411159 32.132138 43 30.517578 L 43 13 C 43 11.224016 42.066891 9.6524408 40.662109 8.7675781 A 1.0001 1.0001 0 0 0 40.09375 8.6054688 z M 11 21 C 10.447 21 10 21.447 10 22 L 10 25 C 10 25.553 10.447 26 11 26 L 15 26 C 15.553 26 16 25.553 16 25 L 16 22 C 16 21.447 15.553 21 15 21 L 11 21 z M 21 21 C 20.447 21 20 21.447 20 22 L 20 25 C 20 25.553 20.447 26 21 26 L 25 26 C 25.553 26 26 25.553 26 25 L 26 22 C 26 21.447 25.553 21 25 21 L 21 21 z M 31 21 C 30.447 21 30 21.447 30 22 L 30 25 C 30 25.553 30.447 26 31 26 L 35 26 C 35.553 26 36 25.553 36 25 L 36 22 C 36 21.447 35.553 21 35 21 L 31 21 z M 11 30 C 10.447 30 10 30.447 10 31 L 10 34 C 10 34.553 10.447 35 11 35 L 15 35 C 15.553 35 16 34.553 16 34 L 16 31 C 16 30.447 15.553 30 15 30 L 11 30 z M 21 30 C 20.447 30 20 30.447 20 31 L 20 34 C 20 34.553 20.447 35 21 35 L 25 35 C 25.553 35 26 34.553 26 34 L 26 31 C 26 30.447 25.553 30 25 30 L 21 30 z M 38 32 C 38.553 32 39 32.447 39 33 L 39 37.585938 L 41.707031 40.292969 C 42.098031 40.683969 42.098031 41.316031 41.707031 41.707031 C 41.512031 41.902031 41.256 42 41 42 C 40.744 42 40.487969 41.902031 40.292969 41.707031 L 37.292969 38.707031 C 37.104969 38.520031 37 38.266 37 38 L 37 33 C 37 32.447 37.447 32 38 32 z"/></svg>